<svg xmlns="http://www.w3.org/2000/svg" width="136" height="25" viewBox="0 0 136 25"><path fill="#FFF" fill-rule="evenodd" d="M31.9551691,27.8515359 C31.3529933,27.8473386 30.7547532,27.9469537 30.1868749,28.1456243 C29.6490773,28.3311434 29.155979,28.6269106 28.7396287,29.013059 C28.3176557,29.4145974 27.9833947,29.8978424 27.7568056,30.4336932 C27.4967624,31.0655215 27.3702548,31.7443591 27.3857168,32.427394 C27.3857168,33.9543589 27.8242763,35.0982535 28.7016764,35.8590777 C29.5897593,36.6260579 30.7342309,37.0343118 31.9096264,37.0032521 C32.5612808,37.0180824 33.2112484,36.9330178 33.8370391,36.7519758 C34.3312618,36.5994752 34.8145206,36.4145158 35.2842854,36.1984966 C35.7290296,36.4937041 36.1077089,36.8770543 36.3958649,37.3247626 C36.6525347,37.7677139 36.7810101,38.2722251 36.7672348,38.7831722 C36.7672348,39.7888368 36.2845383,40.5700878 35.3197075,41.1263653 C34.3548766,41.6829226 33.0195192,41.9593824 31.3136353,41.9560246 C29.874823,41.9756118 28.443601,41.7439228 27.08491,41.2724301 C25.8856186,40.8546623 24.7819106,40.2024073 23.8390077,39.3537204 C22.9340571,38.5254601 22.2197112,37.511401 21.7451674,36.3820569 C21.2382938,35.1659694 20.9855599,33.8597806 21.0027087,32.5432385 C20.9695356,31.0786729 21.2413862,29.6236211 21.8005496,28.268744 C22.2843706,27.1122576 23.0262671,26.0802901 23.9705755,25.2517501 C24.8991409,24.4612652 25.9769851,23.8630151 27.1405733,23.4919768 C28.3640418,23.0949156 29.6428925,22.8956854 30.9296147,22.9007986 C32.7097164,22.9007986 34.0819015,23.2211134 35.0470134,23.861616 C36.0118443,24.5018388 36.4942597,25.3264614 36.4942597,26.3354839 C36.4967898,26.7932656 36.3820897,27.2440518 36.160842,27.6453103 C35.9533697,28.030899 35.6913585,28.3848684 35.3829612,28.6963054 C34.8909875,28.4716119 34.3849573,28.2802166 33.8674009,28.122959 C33.2472328,27.9371601 32.6026066,27.8456597 31.9551691,27.8515359 M57.7276505,41.3604047 C57.3441921,41.4605794 56.9542678,41.5347311 56.5606887,41.5814607 C56.013895,41.6564518 55.4628844,41.6931079 54.9110304,41.6922685 C54.4204623,41.6964657 53.9304564,41.65925 53.4460731,41.5814607 C53.0499639,41.5229788 52.674096,41.3701983 52.3499556,41.1365506 C52.0426828,40.9020634 51.8054109,40.5895071 51.6625979,40.2313405 C51.4812705,39.7539716 51.3952453,39.2455429 51.4101452,38.7354353 L51.4101452,30.5465716 C51.4101452,29.5411869 51.1574112,28.8338078 50.6525056,28.4247144 C50.1225795,28.0108641 49.4638969,27.7937256 48.7905957,27.8113541 C48.3146462,27.8085559 47.8406646,27.8703956 47.3813017,27.9949145 C47.0029036,28.0897726 46.6405297,28.2389155 46.3051442,28.4373062 L46.3051442,41.3604047 C45.9216858,41.4605794 45.5317615,41.5347311 45.1381825,41.5814607 C44.5913887,41.6564518 44.0403781,41.6931079 43.4888053,41.6922685 C42.997956,41.6964657 42.5079501,41.65925 42.0235668,41.5814607 C41.6274577,41.5229788 41.2515897,41.3701983 40.9274493,41.1365506 C40.6201766,40.9023432 40.3829046,40.5895071 40.2403728,40.2313405 C40.0587642,39.7539716 39.9730202,39.2455429 39.9876388,38.7354353 L39.9876388,17.3321829 C40.2687667,17.2784579 40.6755587,17.2104623 41.2077338,17.1284757 C41.7404711,17.0425717 42.2793932,17 42.8194398,17.0003192 C43.310008,16.9961219 43.8000138,17.0333377 44.2843972,17.1108472 C44.6791007,17.1693291 45.0541252,17.3209902 45.3779845,17.5532389 C45.6849762,17.7877261 45.922248,18.1005622 46.0653421,18.458449 C46.2463885,18.9360977 46.3321325,19.4442466 46.317795,19.9543542 L46.317795,23.5698781 C46.7973991,23.4000288 47.2865616,23.258441 47.7827523,23.1448351 C48.4934435,22.9747059 49.2218458,22.8904808 49.9527783,22.8935588 C52.399434,22.8935588 54.3091357,23.5027218 55.6816019,24.7213277 C57.0540682,25.9399336 57.7403013,27.7542713 57.7403013,30.1646206 L57.7403013,41.3604047 L57.7276505,41.3604047 Z M69.3344923,37.4128771 C69.8011646,37.4092396 70.2667123,37.3664274 70.7263563,37.2847207 C71.1210599,37.235193 71.5042372,37.1168301 71.857896,36.9352284 L71.857896,33.9786751 L69.1880247,34.2000108 C68.5942827,34.2232357 68.012348,34.3743373 67.4829842,34.6424026 C67.0624169,34.8497474 66.8018114,35.2817859 66.8161489,35.7488016 C66.8049038,36.2169365 67.0188421,36.6624062 67.3918988,36.9478202 C67.7725459,37.2578582 68.4199833,37.4128771 69.3344923,37.4128771 M69.0390269,22.9060107 C70.2683991,22.8939785 71.49496,23.0299699 72.6914401,23.3109068 C73.7001269,23.5406371 74.6556806,23.9584049 75.5077791,24.5426641 C76.274977,25.0832719 76.8934583,25.8068804 77.3064352,26.6471727 C77.7483682,27.5907179 77.9642744,28.6235249 77.9378484,29.6641667 L77.9378484,37.9285811 C77.9614631,38.4999688 77.7697339,39.0596041 77.3997696,39.4972388 C77.0303676,39.9116488 76.5982741,40.2661778 76.1192322,40.548234 C74.5125865,41.5068893 72.2503505,41.9873362 69.3319621,41.9890151 C68.1427913,42.0007674 66.9561506,41.8768082 65.7956547,41.6190961 C64.8305428,41.4128706 63.9095679,41.0381947 63.0751804,40.512977 C62.3419989,40.0437228 61.7417909,39.3956651 61.3321876,38.630084 C60.9104958,37.8079797 60.7002122,36.8949347 60.7207345,35.9723758 C60.7207345,34.2744423 61.2262024,32.9704921 62.2362948,32.0602453 C63.2469495,31.1499984 64.8162053,30.5844869 66.9449055,30.3631512 L71.8022327,29.8452087 L71.8022327,29.5939324 C71.840185,28.9413977 71.470783,28.3327943 70.872824,28.0627703 C70.2428165,27.7560901 69.3344923,27.6024702 68.1472893,27.6024702 C67.2249088,27.6007913 66.3050584,27.6992871 65.4040436,27.8968384 C64.5809012,28.0736831 63.7746265,28.3207621 62.9942156,28.6358368 C62.6402756,28.3758862 62.3591477,28.0294719 62.1783825,27.6301721 C61.9591028,27.1883401 61.8449648,26.7025766 61.8449648,26.2098177 C61.814322,25.6535402 61.9813119,25.1042582 62.3172597,24.6585086 C62.7057783,24.2214335 63.1957843,23.8856523 63.7445458,23.680546 C64.5654392,23.3853383 65.4183812,23.1869476 66.2856606,23.0895711 C67.1984828,22.971488 68.1180521,22.9099281 69.0390269,22.9060107 M88.0973034,35.2330976 C88.0973034,35.8733204 88.301121,36.3285838 88.7084754,36.598328 C89.2313731,36.8991319 89.8313,37.0407197 90.4340382,37.0057425 C90.8189022,37.0043434 91.203204,36.9732836 91.5830078,36.9125632 C91.9355421,36.8577189 92.2830161,36.7737736 92.6214941,36.6612869 C92.8483643,36.9394257 93.0417804,37.2433077 93.1975249,37.5664971 C93.370981,37.9422922 93.457287,38.3519452 93.4499776,38.7655157 C93.4735926,39.6500193 93.083387,40.4953484 92.3940616,41.0535847 C91.6901175,41.6434403 90.4480945,41.9386479 88.6682741,41.9386479 C86.4926255,41.9386479 84.8176657,41.4467285 83.6439568,40.4626098 C82.470248,39.4787709 81.881004,37.8798928 81.8759437,35.6656957 L81.8759437,19.8789433 C82.1402039,19.8033925 82.5250679,19.7239243 83.0302547,19.639979 C83.5638354,19.5521163 84.1036009,19.5093042 84.6442098,19.511621 C85.7321747,19.511621 86.5792129,19.702938 87.1853246,20.0851689 C87.7917174,20.46712 88.0947732,21.2735545 88.0947732,22.5039127 L88.0947732,24.8672526 L92.9523816,24.8672526 C93.123307,25.1896026 93.26612,25.5259434 93.3791338,25.8729173 C93.5196974,26.3080337 93.5888552,26.7630172 93.5837951,27.2205191 C93.5837951,28.0820776 93.3917847,28.7029931 93.0077639,29.0835451 C92.5959115,29.4766889 92.0395594,29.6837539 91.4694321,29.6566116 L88.0973034,29.6566116 L88.0973034,35.2330976 Z M105.526388,29.4002427 C106.565436,29.4002427 107.362715,29.1607188 107.918786,28.6811113 C108.474294,28.2017836 108.75233,27.4695009 108.75233,26.4837033 C108.75233,25.5485526 108.461644,24.8285819 107.880833,24.3240706 C107.299742,23.8195594 106.452704,23.5682831 105.339719,23.5699454 C104.943891,23.5699454 104.616377,23.5758382 104.357177,23.5875905 C104.089262,23.6010218 103.822472,23.6320815 103.558773,23.68049 L103.558773,29.4027611 L105.523858,29.4027611 L105.526388,29.4002427 Z M103.599256,41.2496808 C103.177564,41.3501354 102.749688,41.4240073 102.318438,41.4707368 C101.746624,41.5443288 101.170311,41.5812648 100.593156,41.5815446 C100.089375,41.5877006 99.5858745,41.5446087 99.0902466,41.4533881 C98.6955429,41.3839933 98.3216429,41.226456 97.996659,40.9930881 C97.6888241,40.7566422 97.4571744,40.4359711 97.3298237,40.0705293 C97.1650824,39.5702153 97.0897405,39.0452774 97.1074515,38.5192202 L97.1074515,21.1335897 C97.0796197,20.6925971 97.2339588,20.2594394 97.5342036,19.9342912 C97.8650909,19.6278909 98.2603566,19.3987203 98.6913255,19.2630087 C99.6238271,18.9468147 100.587533,18.7302359 101.565858,18.6169097 C102.642297,18.481478 103.726607,18.4132025 104.811761,18.4132025 C108.223528,18.4132025 110.833519,19.1390495 112.642296,20.5904636 C114.450792,22.0421576 115.35771,24.007317 115.362489,26.4862216 C115.378795,27.6021344 115.183411,28.7110518 114.786739,29.7547716 C114.416213,30.7100691 113.833434,31.5693891 113.081699,32.2689333 C112.2594,33.0096106 111.285573,33.5636496 110.227407,33.8929949 C108.938156,34.2959323 107.592396,34.4892863 106.241296,34.4663413 L103.599256,34.4663413 L103.599256,41.2547176 L103.599256,41.2496808 Z M123.736305,41.3604047 C123.352846,41.4605794 122.962922,41.5347311 122.569343,41.5814607 C122.022549,41.6564518 121.471538,41.6931079 120.919684,41.6922685 C120.429116,41.6964657 119.939111,41.65925 119.455008,41.5814607 C119.058618,41.5229788 118.68275,41.3701983 118.358329,41.1365506 C118.051337,40.9023432 117.814065,40.5895071 117.671533,40.2313405 C117.489643,39.7539716 117.404181,39.2455429 117.418799,38.7354353 L117.418799,27.6728444 C117.405024,27.1688928 117.513258,26.6685788 117.734506,26.2147146 C117.958002,25.790511 118.26893,25.4180737 118.646485,25.1211871 C119.094602,24.7694564 119.587138,24.4781662 120.111442,24.2537524 C120.719802,23.9848477 121.34475,23.7565165 121.983191,23.5698781 C122.664364,23.3698085 123.357625,23.2150693 124.059601,23.1073395 C124.770855,22.9970913 125.489418,22.9414076 126.209105,22.9414076 C127.387874,22.9414076 128.327685,23.1691792 129.027974,23.625282 C129.728545,24.0811049 130.074894,24.8251401 130.066461,25.8576672 C130.065336,26.1982053 130.015014,26.5370645 129.917182,26.8633319 C129.825815,27.1772873 129.701557,27.4806096 129.546093,27.768542 C129.027131,27.768542 128.49608,27.7928861 127.952098,27.8415744 C127.408397,27.8899829 126.876784,27.9638547 126.358103,28.0629101 C125.839422,28.1616858 125.351103,28.2663376 124.893146,28.3771454 C124.492538,28.4686458 124.101771,28.5984811 123.726184,28.7641332 L123.726184,41.3604047 L123.736305,41.3604047 Z M137.641676,32.4297445 C137.641676,33.9385213 137.932081,35.0891315 138.513172,35.8818548 C139.064745,36.6678626 139.98066,37.1197682 140.94296,37.0811533 C141.901607,37.1214471 142.810493,36.6561103 143.335358,35.8566713 C143.890867,35.0454799 144.168902,33.9015853 144.168902,32.4247078 C144.168902,30.94811 143.88412,29.8100916 143.315117,29.0106526 C142.745834,28.2559844 141.852971,27.8121936 140.905008,27.8121936 C139.957326,27.8121936 139.064745,28.2559844 138.495461,29.0106526 C137.926458,29.8134494 137.641676,30.9534265 137.641676,32.4297445 M150.620225,32.4297445 C150.643559,33.8212776 150.404319,35.2044163 149.915437,36.507807 C149.485593,37.6466648 148.808637,38.6766736 147.932361,39.5248009 C147.057211,40.3508226 146.013944,40.9801326 144.87369,41.3701983 C143.596526,41.8036359 142.254422,42.0162973 140.905008,41.9989486 C139.553064,42.0174166 138.208992,41.7924432 136.936889,41.3352211 C135.795509,40.9205313 134.753649,40.2730333 133.877936,39.4344198 C133.007283,38.5818154 132.330889,37.5532057 131.895141,36.4174258 C131.408509,35.1445353 131.16955,33.7913372 131.190354,32.4297445 C131.171518,31.0807436 131.410758,29.740417 131.895141,28.4801183 C132.330889,27.3446182 133.007564,26.3154489 133.877936,25.4631244 C134.75393,24.6245109 135.79579,23.9770128 136.936889,23.562323 C138.208992,23.1048211 139.553064,22.8801276 140.905008,22.8985955 C142.259201,22.8806872 143.604679,23.1123762 144.87369,23.5824699 C146.013382,24.0083523 147.054399,24.6608871 147.932361,25.5006199 C148.802733,26.3535041 149.478846,27.3823936 149.915437,28.5178936 C150.397009,29.7656006 150.636249,31.0933353 150.620225,32.4297445 M153.660763,24.7371934 C154.02623,24.7371934 154.239606,24.5351651 154.239606,24.191549 C154.239606,23.8482127 154.02623,23.6562578 153.660763,23.6562578 L153.061961,23.6562578 L153.061961,24.7371934 L153.660763,24.7371934 Z M154.422057,25.2120439 L155.112226,26.2725529 L154.188722,26.2725529 L153.701527,25.3634253 L153.660763,25.3634253 L153.061961,25.3634253 L153.061961,26.2725529 L152.260465,26.2725529 L152.260465,23.0400993 L153.660763,23.0400993 C154.523544,23.0400993 155.01074,23.444156 155.01074,24.1613286 C155.01074,24.6563261 154.797644,25.0200891 154.422057,25.2120439 L154.422057,25.2120439 Z M156.198223,24.7573403 C156.198223,23.322995 155.051221,22.1410452 153.569678,22.1410452 C152.077451,22.1410452 150.940851,23.3431418 150.940851,24.7777669 C150.940851,26.2121123 152.06733,27.394062 153.549437,27.394062 C155.041101,27.394062 156.198223,26.1919654 156.198223,24.7573403 L156.198223,24.7573403 Z M157,24.7573403 C157,26.6262424 155.487813,28.2021754 153.549437,28.2021754 C151.620899,28.2021754 150.128954,26.6463893 150.128954,24.7777669 C150.128954,22.908585 151.63102,21.332652 153.569678,21.332652 C155.497934,21.332652 157,22.8783647 157,24.7573403 L157,24.7573403 Z" transform="translate(-21 -17)"/></svg>